/vscmnt/brussel_pixiu_data/_data_brussel/112/vsc11236/PredSimResults/SUBJ04opt3D/weighted-expIG/worker_03.mot
version=1
nRows=6
nColumns=50
inDegrees=yes
endheader
                time	         pelvis_tilt	         pelvis_list	     pelvis_rotation	           pelvis_tx	           pelvis_ty	           pelvis_tz	       hip_flexion_r	     hip_adduction_r	      hip_rotation_r	        knee_angle_r	       ankle_angle_r	         mtp_angle_r	       hip_flexion_l	     hip_adduction_l	      hip_rotation_l	        knee_angle_l	       ankle_angle_l	         mtp_angle_l	    lumbar_extension	      lumbar_bending	     lumbar_rotation	 ercspn_r/activation	 intobl_r/activation	 extobl_r/activation	    abd_r/activation	    add_r/activation	hamstrings_r/activation	bifemsh_r/activation	glut_max_r/activation	iliopsoas_r/activation	rect_fem_r/activation	  vasti_r/activation	gastroc_r/activation	 soleus_r/activation	tib_ant_r/activation	 ercspn_l/activation	 intobl_l/activation	 extobl_l/activation	    abd_l/activation	    add_l/activation	hamstrings_l/activation	bifemsh_l/activation	glut_max_l/activation	iliopsoas_l/activation	rect_fem_l/activation	  vasti_l/activation	gastroc_l/activation	 soleus_l/activation	tib_ant_l/activation	
          1.37560585	         -1.52027118	          0.25200296	          8.52221825	          1.16926497	          0.88453745	         -0.01097731	         28.10320809	         -2.82669857	         -9.62286108	        -10.42737273	          3.94635844	          0.23004366	        -11.91996251	         -0.25740900	         -7.29858716	         -6.87635123	         14.14277995	         17.64036841	        -14.04552598	         -4.26691213	         -7.76921231	          0.04573369	          0.23382632	          0.02231359	          0.00999999	          0.25972169	          0.06624398	          0.01559314	          0.01697166	          0.18891330	          0.04178222	          0.05120566	          0.00999999	          0.00999999	          0.33763432	          0.01000000	          0.00999999	          0.00999999	          0.07878873	          0.00999999	          0.02967444	          0.29122595	          0.02022509	          0.01857544	          0.00999999	          0.00999999	          0.26268598	          0.24408786	          0.01307243	
          1.38936191	         -1.63135834	          0.24198853	          8.29380715	          1.18436790	          0.88210754	         -0.01059118	         28.10372124	         -2.66309767	         -9.83008701	        -11.77672375	          3.77045567	          0.22692304	        -12.59170331	         -0.36449822	         -7.96379436	         -7.37724830	         14.05281406	         19.00706599	        -13.53219914	         -3.62199090	         -7.82632582	          0.03720402	          0.22686516	          0.01815194	          0.00999999	          0.31164387	          0.06818446	          0.01268490	          0.01380631	          0.15367955	          0.03398952	          0.04165542	          0.01511098	          0.01857543	          0.33137555	          0.02551761	          0.00999999	          0.00999999	          0.06409404	          0.00999999	          0.02413993	          0.24447718	          0.01645296	          0.01511098	          0.00999999	          0.00999999	          0.25695042	          0.25262068	          0.01063432	
          1.40311797	         -1.72600045	          0.17423671	          8.02425005	          1.19992694	          0.87980173	         -0.01015868	         27.98737218	         -2.48845714	         -9.89470581	        -13.14793752	          3.53251138	          0.22125778	        -13.22606919	         -0.53687252	         -8.66999720	         -8.02379481	         13.87710291	         20.45474507	        -12.97627065	         -2.88578138	         -7.86043955	          0.03026519	          0.21992862	          0.01476647	          0.01462586	          0.25351995	          0.07292119	          0.01031908	          0.03195184	          0.12501716	          0.02765022	          0.04166435	          0.01229267	          0.01511098	          0.35366512	          0.02613329	          0.00999999	          0.00999999	          0.05214002	          0.00999999	          0.03178869	          0.19888035	          0.01338436	          0.01229267	          0.00999999	          0.00999999	          0.23216021	          0.25234538	          0.00999999	
          1.41687402	         -1.80555238	          0.04326779	          7.70379323	          1.21574206	          0.87779964	         -0.00961533	         27.81178613	         -2.26640874	        -10.05557289	        -14.40162018	          3.12930188	          0.20738181	        -13.76242281	         -0.78722287	         -9.42729629	         -8.89762176	         13.59244311	         21.96978857	        -12.40516997	         -2.05980788	         -7.86130622	          0.02462050	          0.17891028	          0.01201241	          0.02245113	          0.21473867	          0.07901827	          0.01000009	          0.02599259	          0.10170052	          0.02249325	          0.11151117	          0.00999999	          0.01229267	          0.38157611	          0.02722228	          0.00999999	          0.00999999	          0.04241551	          0.00999999	          0.04060727	          0.16178767	          0.01111209	          0.00999999	          0.00999999	          0.00999999	          0.18886059	          0.24270012	          0.00999999	
          1.43063008	         -1.87052212	         -0.14003156	          7.33945611	          1.23169033	          0.87628431	         -0.00894606	         27.56673058	         -2.00501646	        -10.35582172	        -15.55562617	          2.78122438	          0.18621121	        -14.15029324	         -1.11640553	        -10.22669406	        -10.07048010	         13.15331904	         23.54597379	        -11.83897189	         -1.16299746	         -7.82839944	          0.02343526	          0.14554217	          0.00999999	          0.04523223	          0.18773179	          0.07895915	          0.01000001	          0.02114477	          0.08273261	          0.01829809	          0.18213289	          0.00999999	          0.00999999	          0.39679839	          0.04244142	          0.00999999	          0.00999999	          0.03450470	          0.00999999	          0.03550923	          0.13161306	          0.01093689	          0.00999999	          0.00999999	          0.00999999	          0.15363667	          0.22529224	          0.00999999	
          1.44438614	         -1.92169283	         -0.36775116	          6.94342657	          1.24765205	          0.87545550	         -0.00813738	         27.21152057	         -1.69763249	        -10.75186017	        -16.56754096	          2.64671894	          0.16337922	        -14.33279417	         -1.53333093	        -11.05693748	        -11.61862425	         12.49397467	         25.19357138	        -11.29361102	         -0.21373710	         -7.76329964	          0.02970565	          0.11839746	          0.00999999	          0.07428737	          0.16416366	          0.07796756	          0.00999999	          0.02541932	          0.06730236	          0.01488536	          0.22225139	          0.00999999	          0.00999999	          0.39762617	          0.07029115	          0.00999999	          0.00999999	          0.02806932	          0.00999999	          0.04935099	          0.10706624	          0.01624594	          0.00999999	          0.00999999	          0.00999999	          0.12498228	          0.18344911	          0.00999999	
